<svg xmlns="http://www.w3.org/2000/svg" width="24" height="24" viewBox="0.00 -52.41 58.75 58.75"><path fill="#ffffff" fill-rule="evenodd" d="M53.38 -22.78L48.39 -31.42L39.75 -36.42Q34.75 -36.42 33.38 -36.42Q32.00 -36.42 32.00 -38.12Q32.00 -39.81 33.28 -40.45L34.75 -42.94Q34.75 -44.42 34.75 -46.53L31.61 -49.66L27.14 -49.66L24.00 -46.53Q24.00 -44.42 24.00 -42.94L25.47 -40.39Q26.75 -39.81 26.75 -38.12Q26.75 -36.42 25.38 -36.42Q24.00 -36.42 19.02 -36.42L10.38 -31.42L5.38 -22.78Q5.38 -17.66 4.06 -17.66Q2.75 -17.66 1.59 -17.66L0.00 -16.19Q0.00 -15.05 0.00 -11.05Q0.00 -7.05 0.00 -5.89L1.59 -4.42Q2.75 -4.42 4.06 -4.42Q5.38 -4.42 5.38 -3.04Q5.38 -1.66 5.38 0.45L8.52 3.58Q10.75 3.58 29.38 3.58Q48.00 3.58 50.23 3.58L53.38 0.45Q53.38 -1.66 53.38 -3.04Q53.38 -4.42 54.69 -4.42Q56.00 -4.42 57.16 -4.42L58.75 -5.89Q58.75 -7.05 58.75 -11.05Q58.75 -15.05 58.75 -16.19L57.16 -17.66Q56.00 -17.66 54.69 -17.66Q53.38 -17.66 53.38 -22.78ZM20.42 -9.53Q17.34 -12.80 15.80 -11.16Q14.27 -9.53 12.70 -11.16Q11.14 -12.80 11.08 -12.73Q17.34 -19.02 20.48 -15.91Q23.61 -12.80 22.05 -11.16Q20.48 -9.53 20.42 -9.53ZM35.14 -12.73Q41.41 -19.02 44.51 -15.91Q47.61 -12.80 46.05 -11.16Q44.48 -9.53 42.95 -11.16Q41.41 -12.80 39.84 -11.16Q38.27 -9.53 36.70 -11.16Q35.14 -12.80 35.14 -12.73Z"/></svg>
